<svg xmlns="http://www.w3.org/2000/svg" width="25" height="25"><path d="M8.82 5.373c-3.541-.595-6.341.027-7.458 1.811-.833 1.331-.595 3.095.577 4.981a.38.38 0 0 0 .5.124.321.321 0 0 0 .134-.457c-1.056-1.7-1.261-3.221-.578-4.312.927-1.481 3.425-2.037 6.7-1.487a.362.362 0 0 0 .422-.27.338.338 0 0 0-.292-.39zm5.237-3.035a1.76 1.76 0 0 1-1.545.868 1.675 1.675 0 0 1-1.738-1.6A1.675 1.675 0 0 1 12.512 0a1.675 1.675 0 0 1 1.738 1.6v.069c2.877 1.373 4.876 6.054 4.876 11.462a19.528 19.528 0 0 1-.965 6.209.37.37 0 0 1-.455.22.331.331 0 0 1-.238-.42 18.909 18.909 0 0 0 .932-6.009c0-5.092-1.835-9.474-4.342-10.8zM1.608 17.416h.13a1.609 1.609 0 1 1 0 3.207 1.675 1.675 0 0 1-1.739-1.608 1.588 1.588 0 0 1 .894-1.4c-.262-3 3.153-7.014 8.313-9.762a23.832 23.832 0 0 1 6.471-2.366.364.364 0 0 1 .431.257.336.336 0 0 1-.279.4 23.072 23.072 0 0 0-6.26 2.287c-4.859 2.588-8.07 6.319-7.961 8.985zm20.143 2.392a1.5 1.5 0 0 1-.227-.793 1.744 1.744 0 1 1 1.738 1.6 1.831 1.831 0 0 1-1.014-.3c-2.773 1.5-8.069.737-13.053-1.917a22.538 22.538 0 0 1-5.414-3.943.317.317 0 0 1 .024-.473.385.385 0 0 1 .513.022 21.821 21.821 0 0 0 5.241 3.816c4.7 2.505 9.657 3.251 12.192 1.987zm-.114-5.758a.384.384 0 0 1-.512.039.317.317 0 0 1-.043-.472c2.143-2.336 2.865-4.6 1.94-6.08-.671-1.073-2.164-1.668-4.235-1.693a.336.336 0 1 1 .009-.67c2.3.028 4.035.719 4.854 2.028 1.114 1.779.3 4.321-2.015 6.848zm-14.551 5.9a.329.329 0 0 1 .219-.428.372.372 0 0 1 .464.2c1.121 2.887 2.89 4.6 4.742 4.6 1.333 0 2.628-.881 3.683-2.5a.381.381 0 0 1 .5-.115.321.321 0 0 1 .124.46C15.644 23.977 14.139 25 12.512 25c-2.23 0-4.214-1.923-5.426-5.046zm17.187-.939a1.015 1.015 0 1 0-1.012.933.975.975 0 0 0 1.012-.933zm-22.536.933a.936.936 0 1 0 0-1.867.936.936 0 1 0 0 1.867zM12.512 2.537a.975.975 0 0 0 1.012-.937 1.015 1.015 0 0 0-2.023 0 .975.975 0 0 0 1.011.937zm.265 11.731a1.261 1.261 0 0 1-1.495-.889A1.164 1.164 0 0 1 12.247 12a1.261 1.261 0 0 1 1.495.889 1.164 1.164 0 0 1-.964 1.379z" fill="#00d8ff"/></svg>