<svg data-name="Group 18" xmlns="http://www.w3.org/2000/svg" width="30" height="30"><g data-name="Ellipse 13" fill="#fff" stroke="#707070"><circle cx="15" cy="15" r="15" stroke="none"/><circle cx="15" cy="15" r="14.5" fill="none"/></g><path data-name="Exclusion 1" d="M15 30A15 15 0 0 1 9.161 1.179a15.004 15.004 0 0 1 11.678 27.642A14.906 14.906 0 0 1 15 30zm-3.867-17.924v2.934h1.638v8.324h3.467V15.01h2.324l.3-2.934h-2.624v-1.733a.8.8 0 0 1 .248-.648.739.739 0 0 1 .476-.153h1.866V6.686l-2.571-.019a3.672 3.672 0 0 0-2.171.609 2.934 2.934 0 0 0-1.048 1.391 4.141 4.141 0 0 0-.267 1.5v1.9z" fill="#4267b2"/></svg>