<svg xmlns="http://www.w3.org/2000/svg" width="30" height="30" viewBox="0 0 30 30">
  <g id="Group_25" data-name="Group 25" transform="translate(-574 -1731)">
    <circle id="Ellipse_20" data-name="Ellipse 20" cx="15" cy="15" r="15" transform="translate(574 1731)" fill="#fff"/>
    <path id="Exclusion_4" data-name="Exclusion 4" d="M15,30A15,15,0,0,1,9.161,1.179,15,15,0,0,1,20.839,28.821,14.908,14.908,0,0,1,15,30Zm.086-23.333A8.173,8.173,0,0,0,8.076,10.7a8.142,8.142,0,0,0,.057,8.286L6.666,23.334l4.5-1.429a8.138,8.138,0,0,0,8.019-.1A8.251,8.251,0,0,0,22.095,18.9,8.118,8.118,0,0,0,19.181,7.79a7.9,7.9,0,0,0-4.092-1.123ZM17.3,18.615a2.361,2.361,0,0,1-.333-.025,7.876,7.876,0,0,1-1.638-.533,5.751,5.751,0,0,1-1.124-.609c-.306-.23-.613-.486-.914-.762-.241-.241-.478-.5-.7-.762a6.7,6.7,0,0,1-.457-.591c-.161-.224-.245-.339-.247-.34l.038.054a3.6,3.6,0,0,1-.8-2.057,2.336,2.336,0,0,1,.267-1.123,2.969,2.969,0,0,1,.438-.533.89.89,0,0,1,.686-.248l.228.019a.465.465,0,0,1,.257.057.655.655,0,0,1,.181.267l.61,1.485a.39.39,0,0,1,.048.352,1.474,1.474,0,0,1-.238.333l-.3.324a.623.623,0,0,0-.114.171.3.3,0,0,0,.038.248,5.913,5.913,0,0,0,1.1,1.39,6.377,6.377,0,0,0,1.01.705c.127.064.326.154.59.267a.505.505,0,0,0,.2.043.494.494,0,0,0,.3-.1c.07-.093.229-.31.533-.724a.39.39,0,0,1,.315-.169.519.519,0,0,1,.18.036c.087.025.529.23,1.353.628.165.093.251.14.256.14l-.009-.007a.371.371,0,0,1,.133.124.683.683,0,0,1,.019.315,2.11,2.11,0,0,1-.133.61,1.29,1.29,0,0,1-.534.628,2.456,2.456,0,0,1-.819.344A1.915,1.915,0,0,1,17.3,18.615Z" transform="translate(574 1731)" fill="#0dc143"/>
  </g>
</svg>
