<svg data-name="Group 22" xmlns="http://www.w3.org/2000/svg" width="30" height="30"><g data-name="Ellipse 17" fill="#fff" stroke="#707070"><circle cx="15" cy="15" r="15" stroke="none"/><circle cx="15" cy="15" r="14.5" fill="none"/></g><path data-name="Subtraction 2" d="M15 30A15 15 0 0 1 9.161 1.179a15.004 15.004 0 0 1 11.678 27.642A14.906 14.906 0 0 1 15 30zM6.667 12.647v7.467a3.089 3.089 0 0 0 .447 1.619A3.372 3.372 0 0 0 8.3 22.914a3.016 3.016 0 0 0 1.552.42h10.167a3.229 3.229 0 0 0 2.8-1.6 3.141 3.141 0 0 0 .438-1.619v-7.486h-4.819a4.63 4.63 0 0 1 .743 2.114 4.31 4.31 0 0 1-.324 1.98 4.06 4.06 0 0 1-1.067 1.524 4.185 4.185 0 0 1-1.6.9 4.335 4.335 0 0 1-1.237.182 4.412 4.412 0 0 1-.582-.039 4.328 4.328 0 0 1-3.419-2.79 4.209 4.209 0 0 1 .533-3.848zm8.3-.837a3.213 3.213 0 0 0-1.647.447 3.308 3.308 0 0 0-1.2 1.2 3.279 3.279 0 0 0 0 3.276 3.16 3.16 0 0 0 1.2 1.18 3.334 3.334 0 0 0 1.657.429 3.246 3.246 0 0 0 1.629-.429 3.181 3.181 0 0 0 1.191-1.18 3.282 3.282 0 0 0 0-3.276 3.339 3.339 0 0 0-1.191-1.2 3.166 3.166 0 0 0-1.644-.446zm.01-.971a4.181 4.181 0 0 1 1.023.132A4.41 4.41 0 0 1 17.886 12a.329.329 0 0 0 .267.114h5.1v.037c0 .001 0-.149.018-1.2 0-.427-.006-.812-.019-1.143a3.073 3.073 0 0 0-.467-1.562A3.392 3.392 0 0 0 21.609 7.1a3.114 3.114 0 0 0-1.59-.428H11.01v4.114h-.686v-4.1h-.438v4.1H9.2V6.762l-.171.038a.754.754 0 0 0-.267.124.506.506 0 0 0-.038.257v3.6h-.667V7.294l-.076.019A3.1 3.1 0 0 0 6.7 9.618a8.5 8.5 0 0 0-.038.876c0 .616 0 .916.013.916a.111.111 0 0 0 .006-.039v.729l.1.019h5.048a.272.272 0 0 0 .19-.1 4.485 4.485 0 0 1 1.881-1.038 4.185 4.185 0 0 1 1.072-.141zm-.01 6.665a2.305 2.305 0 0 1-1.209-.333 2.494 2.494 0 0 1-.876-.886 2.422 2.422 0 0 1 0-2.419 2.43 2.43 0 0 1 .876-.876 2.419 2.419 0 0 1 2.419 0 2.434 2.434 0 0 1 1.2 2.095 2.377 2.377 0 0 1-.324 1.219 2.425 2.425 0 0 1-.876.876 2.356 2.356 0 0 1-1.215.325zm6.252-6.604h-1.752a.5.5 0 0 1-.371-.144.527.527 0 0 1-.143-.39V8.61a.59.59 0 0 1 .133-.4.481.481 0 0 1 .381-.152c.3-.006.6-.009.89-.009s.591 0 .882.009a.5.5 0 0 1 .371.143.529.529 0 0 1 .143.39v1.772a.5.5 0 0 1-.534.534z" fill="#3f729b"/></svg>