<svg id="Group_18" data-name="Group 18" xmlns="http://www.w3.org/2000/svg" width="30" height="30" viewBox="0 0 30 30">
  <g id="Ellipse_13" data-name="Ellipse 13" fill="#fff" stroke="#707070" stroke-width="1">
    <circle cx="15" cy="15" r="15" stroke="none"/>
    <circle cx="15" cy="15" r="14.5" fill="none"/>
  </g>
  <path id="Exclusion_1" data-name="Exclusion 1" d="M15,30A15,15,0,0,1,9.161,1.179,15,15,0,0,1,20.839,28.821,14.906,14.906,0,0,1,15,30ZM11.133,12.076V15.01h1.638v8.324h3.467V15.01h2.324l.3-2.934H16.238V10.343a.8.8,0,0,1,.248-.648.739.739,0,0,1,.476-.153h1.866V6.686l-2.571-.019a3.672,3.672,0,0,0-2.171.609,2.934,2.934,0,0,0-1.048,1.391,4.141,4.141,0,0,0-.267,1.5v1.9Z" transform="translate(0 0)" fill="#4267b2"/>
</svg>
