<svg id="Group_19" data-name="Group 19" xmlns="http://www.w3.org/2000/svg" width="30" height="30" viewBox="0 0 30 30">
  <g id="Ellipse_14" data-name="Ellipse 14" fill="#fff" stroke="#707070" stroke-width="1">
    <circle cx="15" cy="15" r="15" stroke="none"/>
    <circle cx="15" cy="15" r="14.5" fill="none"/>
  </g>
  <path id="Exclusion_2" data-name="Exclusion 2" d="M15,30A15,15,0,0,1,9.161,1.179,15,15,0,0,1,20.839,28.821,14.908,14.908,0,0,1,15,30ZM6.667,20.115h0a9.522,9.522,0,0,0,2.476,1.123,9.8,9.8,0,0,0,2.781.4,9.987,9.987,0,0,0,4.171-.876,9.3,9.3,0,0,0,3.048-2.286,10.272,10.272,0,0,0,1.866-3.124,9.941,9.941,0,0,0,.629-3.428v-.438A7.2,7.2,0,0,0,23.352,9.7a6.992,6.992,0,0,1-1.981.552,3.545,3.545,0,0,0,.924-.81,3.329,3.329,0,0,0,.581-1.1,6.687,6.687,0,0,1-2.172.838A3.39,3.39,0,0,0,18.21,8.1a3.313,3.313,0,0,0-1.7.467A3.47,3.47,0,0,0,15.257,9.81a3.35,3.35,0,0,0-.457,1.714,3.972,3.972,0,0,0,.076.781,9.687,9.687,0,0,1-3.943-1.066A9.794,9.794,0,0,1,7.828,8.724a3.417,3.417,0,0,0-.457,1.714,3.367,3.367,0,0,0,.409,1.629A3.465,3.465,0,0,0,8.895,13.3a3.219,3.219,0,0,1-1.562-.438v.057A3.581,3.581,0,0,0,7.7,14.429a3.41,3.41,0,0,0,.981,1.2,3.322,3.322,0,0,0,1.391.638,3.542,3.542,0,0,1-.9.114,3.416,3.416,0,0,1-.629-.057,3.318,3.318,0,0,0,1.2,1.686,3.438,3.438,0,0,0,1.981.7,7.158,7.158,0,0,1-1.981,1.067,6.834,6.834,0,0,1-2.267.381C7.2,20.154,6.929,20.141,6.667,20.115Z" transform="translate(0 0)" fill="#1a91da"/>
</svg>
