<svg id="Group_21" data-name="Group 21" xmlns="http://www.w3.org/2000/svg" width="30" height="30" viewBox="0 0 30 30">
  <g id="Ellipse_16" data-name="Ellipse 16" fill="#fff" stroke="#707070" stroke-width="1">
    <circle cx="15" cy="15" r="15" stroke="none"/>
    <circle cx="15" cy="15" r="14.5" fill="none"/>
  </g>
  <path id="Subtraction_1" data-name="Subtraction 1" d="M15,30A15,15,0,0,1,9.161,1.179,15,15,0,0,1,20.839,28.821,14.908,14.908,0,0,1,15,30ZM15,9.048c-1.424,0-2.766.019-3.99.057A19.48,19.48,0,0,0,8.7,9.257a2.441,2.441,0,0,0-1.124.572,2.1,2.1,0,0,0-.5.762,4.455,4.455,0,0,0-.21.915l-.114.933a39.623,39.623,0,0,0,0,4.914c.025.4.054.71.086.914a3.606,3.606,0,0,0,.143.591A2.6,2.6,0,0,0,7.514,19.9a2.234,2.234,0,0,0,1.124.591,11.527,11.527,0,0,0,1.515.143c.671.032,1.79.06,3.419.086.6.011,1.2.017,1.8.017,2.055,0,4.045-.07,5.914-.208a2.2,2.2,0,0,0,1.162-.609A1.878,1.878,0,0,0,22.9,19.2a4.029,4.029,0,0,0,.248-.933c.051-.342.1-.893.153-1.638.013-.23.019-.813.019-1.733s-.006-1.5-.019-1.733c-.039-.626-.057-.947-.057-1.01a5.8,5.8,0,0,0-.19-1.086,3.481,3.481,0,0,0-.438-1.029,1.893,1.893,0,0,0-.562-.5,2.33,2.33,0,0,0-.733-.286c-.329-.05-1.092-.1-2.333-.143S16.42,9.048,15,9.048Zm-1.7,8.019h0v-4.7l4.476,2.362c-.428.234-1.146.6-2.133,1.1s-1.793.931-2.342,1.238Z" transform="translate(0 0)" fill="red"/>
</svg>
