<?xml version="1.0" standalone="no"?>
<!DOCTYPE svg PUBLIC "-//W3C//DTD SVG 20010904//EN"
 "http://www.w3.org/TR/2001/REC-SVG-20010904/DTD/svg10.dtd">
<svg version="1.0" xmlns="http://www.w3.org/2000/svg"
 width="480.000000pt" height="480.000000pt" viewBox="0 0 480.000000 480.000000"
 preserveAspectRatio="xMidYMid meet">
<metadata>
Created by potrace 1.11, written by Peter Selinger 2001-2013
</metadata>
<g transform="translate(0.000000,480.000000) scale(0.100000,-0.100000)"
fill="#000000" stroke="none">
<path d="M1371 3148 c-85 -13 -151 -54 -196 -123 -17 -25 -20 -46 -19 -135 2
-176 12 -210 52 -178 15 12 16 11 3 -4 -7 -10 -20 -18 -27 -18 -10 0 -11 -6
-4 -25 6 -16 6 -26 -1 -31 -6 -4 -4 -15 6 -31 9 -13 14 -31 11 -39 -3 -7 0
-19 7 -26 16 -17 15 -51 -1 -71 -11 -13 -10 -17 7 -27 21 -11 29 -40 12 -40
-14 0 -22 -29 -15 -55 6 -25 41 -45 79 -45 13 0 26 -3 28 -7 3 -5 -26 -9 -63
-11 l-68 -2 -8 32 c-4 18 -7 41 -5 50 2 17 -7 30 -71 101 -46 50 -53 77 -33
123 61 147 -213 -3 -331 -181 -34 -52 -49 -101 -34 -110 5 -3 26 1 46 10 48
20 61 19 91 -5 l26 -20 -251 0 -251 0 -3 -22 c-4 -31 -42 -31 -46 -1 -3 17
-10 21 -38 21 l-34 0 35 -36 c35 -36 35 -37 15 -51 -28 -19 -25 -40 6 -51 35
-14 58 3 43 32 -15 28 -6 32 37 18 l36 -12 -28 -24 c-29 -24 -29 -24 -9 -39
11 -9 29 -14 40 -13 16 2 19 10 17 36 -1 17 0 32 1 32 15 0 67 -24 67 -30 0
-4 -9 -10 -21 -13 -27 -7 -20 -28 15 -46 37 -17 54 -2 38 34 -13 28 -9 30 37
14 32 -11 42 -29 17 -29 -21 0 -27 -27 -10 -45 17 -17 50 -20 59 -5 3 5 1 19
-5 31 -15 28 -11 30 33 17 37 -11 50 -28 22 -28 -24 0 -31 -31 -10 -46 28 -20
55 -18 55 5 0 11 -5 23 -10 26 -6 4 -8 10 -5 15 5 9 51 -1 80 -17 14 -8 12
-11 -10 -21 -32 -15 -28 -34 8 -46 36 -13 54 3 38 33 -14 25 -8 26 52 9 37
-10 46 -17 62 -52 9 -23 18 -53 19 -67 1 -14 11 -37 23 -50 12 -13 36 -41 54
-62 47 -55 101 -80 174 -79 97 1 194 54 232 126 19 36 28 196 11 196 -6 0 -5
6 2 15 11 13 97 15 665 15 l653 0 30 -28 c17 -16 35 -47 42 -71 9 -36 8 -48
-7 -79 -27 -55 -82 -81 -193 -91 -100 -9 -140 -28 -151 -72 -13 -51 20 -97 96
-137 45 -24 61 -26 160 -27 105 0 208 9 226 21 5 3 20 7 34 10 22 4 129 40
250 85 101 37 181 24 415 -68 282 -111 366 -130 498 -112 217 30 356 195 386
459 15 127 18 158 20 220 4 104 9 100 -111 100 -96 0 -103 1 -95 18 5 9 7 23
4 31 -2 8 0 11 6 7 18 -11 41 5 47 35 8 33 -10 63 -32 55 -7 -3 -13 1 -13 9 0
27 -20 16 -26 -15 l-6 -29 -19 22 -19 22 -20 -24 c-24 -27 -26 -54 -5 -71 17
-14 55 -4 55 15 0 8 3 16 8 18 4 3 5 -17 4 -43 l-4 -48 -64 -4 c-35 -2 -68 -2
-72 0 -5 1 -7 16 -4 32 3 19 9 27 18 23 20 -7 45 56 32 80 -6 12 -17 17 -28
14 -13 -3 -17 0 -13 9 6 17 -11 18 -23 2 -5 -7 -9 -46 -9 -86 l0 -73 -152 3
-152 3 -35 34 c-39 38 -38 51 3 51 42 0 83 42 79 83 -3 30 -6 32 -38 31 -19 0
-43 -4 -53 -9 -17 -7 -16 -5 2 26 19 30 37 81 46 131 6 28 -20 42 -52 29 -58
-24 -82 -88 -97 -254 -4 -55 -2 -51 -40 -71 -38 -19 -62 -7 -75 40 -15 54 8
103 39 84 13 -8 12 -12 -5 -25 -20 -15 -20 -15 -1 -30 24 -18 46 -4 46 30 0
49 -74 67 -119 29 -54 -45 -42 -141 21 -163 43 -15 58 -14 101 9 l37 20 0 -38
0 -37 -223 0 c-247 0 -231 -4 -281 70 -28 40 -33 65 -15 65 7 0 31 12 55 27
42 27 74 76 74 114 0 49 -57 113 -125 139 -43 17 -415 26 -415 10 0 -7 14 -25
31 -41 29 -27 42 -31 112 -31 l27 -1 0 -79 0 -80 -24 16 c-34 22 -47 0 -15
-25 13 -10 28 -19 32 -19 12 0 4 -133 -8 -142 -6 -5 -5 -8 3 -8 7 0 11 -4 7
-10 -3 -6 -304 -9 -798 -9 -495 -1 -786 3 -776 9 8 5 29 8 45 7 26 -3 65 16
100 49 7 6 23 32 37 59 l24 49 -4 -50 c-4 -38 -1 -54 11 -66 19 -20 51 -13 71
15 8 12 15 16 15 9 0 -6 9 -21 20 -32 l20 -20 -120 0 c-66 0 -120 -3 -120 -7
0 -5 51 -7 112 -6 62 1 349 3 638 4 289 2 445 5 348 6 -171 3 -177 4 -166 22
9 16 16 17 35 8 30 -13 56 9 79 68 25 67 5 79 -23 14 -28 -63 -43 -54 -33 22
5 41 4 52 -10 59 -10 5 -20 6 -24 2 -4 -3 -10 -1 -14 5 -10 16 -44 19 -68 6
-11 -7 -33 -41 -48 -77 -16 -36 -32 -66 -38 -66 -5 0 -8 34 -7 76 2 69 4 76
25 85 27 10 32 29 9 29 -9 0 -20 11 -25 25 -12 32 -38 32 -50 -1 -6 -14 -14
-23 -19 -20 -5 3 -14 -1 -21 -9 -9 -11 -9 -15 -1 -16 6 -1 17 -2 24 -3 16 -1
14 -44 -8 -111 -23 -74 -39 -72 -32 5 3 41 1 62 -7 70 -7 5 -15 7 -19 4 -3 -3
-16 1 -29 10 -34 22 -83 -3 -99 -53 -24 -75 -65 -88 -49 -15 8 34 4 39 -30 34
-8 -1 -20 -9 -27 -18 -12 -15 -13 -14 -12 8 2 41 0 50 -13 50 -24 0 -37 -16
-43 -50 -17 -96 -103 -168 -107 -89 -1 38 1 51 10 45 5 -3 22 4 40 14 28 18
30 22 22 51 -11 39 -20 48 -47 53 -29 6 -49 -20 -74 -90 -12 -32 -25 -67 -31
-78 -16 -30 -27 0 -16 47 9 40 -3 64 -25 50 -4 -3 -11 5 -14 16 -9 37 -37 21
-43 -25 -6 -39 -33 -87 -66 -115 -14 -11 -18 -11 -30 6 -22 29 -18 63 9 70 49
15 66 33 58 62 -4 14 -19 36 -34 47 l-27 20 -24 -23 c-48 -45 -57 -169 -16
-203 22 -18 22 -18 -19 -18 -25 0 -43 5 -46 13 -2 6 -22 62 -45 124 -36 98
-40 115 -29 135 7 13 14 29 15 36 1 8 5 16 8 19 3 3 -3 17 -14 31 -11 13 -17
29 -14 34 4 5 -4 30 -17 55 -16 31 -28 43 -40 40 -20 -5 -29 34 -29 130 0 75
9 100 50 142 64 63 180 87 251 50 21 -10 40 -23 44 -29 22 -36 144 31 145 80
0 13 -22 15 -143 15 -79 0 -167 -3 -196 -7z m2470 -620 l-30 -63 5 64 c5 64
17 99 38 113 24 16 16 -53 -13 -114z m-2601 77 c-7 -8 -17 -15 -22 -15 -11 0
14 29 26 30 5 0 3 -7 -4 -15z m1930 -10 c25 -3 64 -15 88 -26 34 -17 42 -26
42 -47 0 -40 -33 -86 -75 -107 -42 -19 -128 -17 -176 5 -25 12 -26 14 -24 93
2 45 3 85 4 89 1 7 44 5 141 -7z m-1669 -158 c-17 -17 -24 -1 -10 25 12 21 14
21 17 4 2 -10 -1 -23 -7 -29z m280 0 c-16 -16 -20 -5 -8 23 9 22 11 23 14 6 3
-10 0 -23 -6 -29z m353 -4 c3 -16 4 -37 2 -48 -3 -11 -5 -27 -6 -35 0 -8 -7
-24 -16 -35 -13 -17 -16 -18 -24 -5 -15 24 -11 98 6 125 21 32 31 31 38 -2z
m310 -45 c-5 -50 -31 -95 -47 -79 -15 15 -9 101 10 130 15 23 17 23 29 7 7
-10 11 -35 8 -58z m1434 49 c4 -19 -32 -57 -53 -57 -21 0 -19 23 6 54 22 29
42 30 47 3z m372 -44 c0 -10 -4 -24 -9 -32 -12 -19 -24 3 -16 29 8 25 25 26
25 3z m80 -13 c0 -16 -4 -30 -10 -30 -5 0 -10 14 -10 30 0 17 5 30 10 30 6 0
10 -13 10 -30z m81 17 c-1 -4 -1 -16 -1 -27 0 -11 -4 -20 -10 -20 -5 0 -10 14
-10 31 0 17 5 29 11 27 6 -2 10 -7 10 -11z m-2465 -33 c7 -45 37 -59 67 -30
12 12 16 9 29 -20 l15 -33 -136 0 c-104 0 -131 3 -116 11 11 6 30 19 41 30 21
19 21 19 27 -1 9 -36 44 -15 51 31 6 39 17 45 22 12z m1180 9 c60 -5 62 -5 79
-43 9 -21 14 -43 10 -49 -3 -6 -3 -10 2 -9 4 2 10 -1 13 -7 3 -6 -33 -10 -100
-10 l-104 0 -3 69 c-2 67 -2 68 20 61 12 -5 50 -10 83 -12z m-876 -58 c12 -31
42 -33 71 -4 11 11 21 19 22 17 1 -1 8 -13 15 -25 l12 -23 -126 0 c-113 0
-125 2 -114 15 9 11 22 14 41 10 21 -5 32 -1 46 14 22 26 22 26 33 -4z m1581
-110 c-1 -73 2 -105 11 -111 15 -11 139 -11 157 0 7 4 11 18 10 29 -4 51 2
107 10 107 16 0 5 -141 -10 -151 -8 -5 -42 -9 -76 -9 -36 0 -65 -5 -69 -12 -4
-6 -3 -8 4 -4 6 3 13 2 17 -4 3 -5 1 -10 -4 -10 -6 0 -11 -8 -11 -17 0 -36
-40 -84 -86 -104 -85 -38 -159 -29 -334 43 -122 50 -127 51 -225 51 -67 -1
-129 -8 -186 -22 -69 -17 -93 -19 -118 -10 -34 12 -37 24 -19 64 11 25 17 27
93 27 147 0 195 -3 190 -11 -3 -5 -1 -12 5 -16 5 -3 10 1 10 9 0 19 -26 17
352 18 234 0 276 2 271 14 -6 16 0 16 -168 16 -71 0 -121 3 -110 7 11 5 73 8
139 9 65 0 121 3 124 6 12 13 -10 18 -88 18 -44 0 -78 3 -75 6 3 4 40 6 82 7
52 0 78 4 81 13 3 9 -12 12 -53 12 -35 0 -54 4 -50 10 3 6 28 10 56 10 27 0
49 5 49 10 0 6 -15 10 -32 10 -18 0 -40 5 -48 11 -12 8 -10 10 10 8 52 -3 81
1 75 11 -4 6 -11 7 -17 4 -8 -5 -9 -1 -4 12 4 10 10 32 13 48 12 58 25 -4 24
-109z m-2601 53 c0 -4 -109 -8 -242 -9 -544 -1 -536 -1 -541 -21 -5 -17 -46
-27 -48 -10 0 4 -2 16 -4 27 -4 20 1 20 415 20 231 1 420 -3 420 -7z m1755
-38 c-3 -4 -247 -8 -542 -9 -296 -1 -649 -3 -785 -4 -137 -2 -248 1 -248 5 0
10 -93 8 755 14 402 3 731 7 732 8 6 5 92 -8 88 -14z m278 5 c1 -6 -50 -10
-120 -10 -68 0 -123 3 -123 7 0 11 26 13 137 12 57 0 104 -4 106 -9z m427 3
c-32 -13 -328 -14 -340 -2 -6 6 60 10 178 11 130 0 179 -2 162 -9z m-2793 -11
c191 2 324 0 327 -5 3 -6 -63 -10 -167 -10 -315 0 -432 -4 -417 -12 8 -4 148
-7 310 -5 162 1 304 -2 315 -6 17 -6 -268 -13 -485 -10 -46 0 -52 -2 -38 -12
10 -9 52 -12 122 -12 58 1 106 -2 106 -5 0 -4 -31 -6 -70 -5 -57 1 -68 -1 -59
-12 9 -10 59 -14 208 -15 l196 -3 -194 -2 c-110 -2 -200 -8 -206 -13 -20 -17
-47 0 -41 25 7 26 -20 31 -46 7 -25 -21 -52 -8 -44 22 5 20 2 24 -21 24 -15 0
-37 -6 -48 -14 -30 -19 -55 -2 -37 26 11 18 10 20 -13 20 -14 0 -37 -7 -50
-16 -23 -15 -25 -15 -31 0 -11 30 2 46 33 37 15 -4 173 -6 350 -4z m2090 -32
c2 -6 -291 -11 -783 -13 -522 -2 -784 0 -780 6 4 7 217 11 603 12 328 0 598 2
599 3 8 7 358 -1 361 -8z m309 3 c8 -8 -3 -9 -166 -12 -97 -1 -113 0 -106 12
6 10 262 9 272 0z m278 1 c-25 -10 -114 -10 -139 0 -12 5 15 8 69 8 51 0 81
-4 70 -8z m-227 -43 c4 -3 -295 -5 -663 -4 l-669 3 525 5 c592 6 799 5 807 -4z
m-2332 -5 c-9 -8 -36 -10 -30 -2 2 4 11 8 20 8 8 0 13 -3 10 -6z m79 -1 c-8
-8 -64 -8 -64 -1 0 4 15 7 34 7 19 0 32 -3 30 -6z m100 1 c-7 -8 -84 -9 -84
-2 0 4 20 7 44 7 25 0 43 -3 40 -5z m72 2 c-8 -8 -56 -10 -56 -2 0 4 14 7 30
7 17 -1 28 -3 26 -5z m264 -5 c0 -3 -9 -6 -20 -5 -11 1 -20 5 -20 9 0 3 9 6
20 5 11 -1 20 -5 20 -9z m80 8 c0 -8 -49 -13 -60 -6 -6 4 5 7 25 8 19 1 35 0
35 -2z m40 0 c0 -11 -19 -15 -25 -6 -3 5 1 10 9 10 9 0 16 -2 16 -4z m30 -6
c0 -5 -2 -10 -4 -10 -3 0 -8 5 -11 10 -3 6 -1 10 4 10 6 0 11 -4 11 -10z m50
6 c0 -2 -9 -6 -20 -9 -11 -3 -20 -1 -20 4 0 5 9 9 20 9 11 0 20 -2 20 -4z m60
-5 c0 -4 -11 -6 -25 -3 -14 2 -25 6 -25 8 0 2 11 4 25 4 14 0 25 -4 25 -9z
m97 2 c-10 -9 -57 -10 -57 -1 0 4 14 8 32 8 17 0 28 -3 25 -7z m120 1 c-8 -8
-95 -9 -103 -1 -4 4 19 7 51 7 32 0 56 -3 52 -6z m1428 -35 c3 -4 -442 -8
-989 -8 -548 -1 -996 2 -996 6 0 10 1975 11 1985 2z m-2180 -59 c10 -11 24
-20 32 -20 17 0 17 -10 -2 -24 -8 -6 -16 -23 -17 -38 -3 -32 -3 -32 -28 -18
-18 10 -40 65 -40 103 0 23 32 22 55 -3z"/>
<path d="M3103 2273 c9 -2 23 -2 30 0 6 3 -1 5 -18 5 -16 0 -22 -2 -12 -5z"/>
<path d="M3158 2273 c7 -3 16 -2 19 1 4 3 -2 6 -13 5 -11 0 -14 -3 -6 -6z"/>
<path d="M3375 2030 c-3 -5 1 -10 10 -10 9 0 13 5 10 10 -3 6 -8 10 -10 10 -2
0 -7 -4 -10 -10z"/>
<path d="M3836 2031 c-4 -5 -2 -12 3 -15 5 -4 12 -2 15 3 4 5 2 12 -3 15 -5 4
-12 2 -15 -3z"/>
<path d="M2935 2010 c4 -6 11 -8 16 -5 14 9 11 15 -7 15 -8 0 -12 -5 -9 -10z"/>
<path d="M3630 1940 c0 -5 5 -10 10 -10 6 0 10 5 10 10 0 6 -4 10 -10 10 -5 0
-10 -4 -10 -10z"/>
<path d="M1325 2930 c-3 -5 -8 -20 -10 -32 -3 -13 -9 -24 -15 -26 -15 -5 -12
-22 4 -22 8 0 17 15 20 36 6 29 10 34 27 29 13 -4 19 -2 19 9 0 18 -35 22 -45
6z"/>
<path d="M1343 2885 c-17 -19 -16 -25 2 -25 8 0 15 9 15 20 0 23 -1 24 -17 5z"/>
<path d="M1090 2746 c0 -18 -7 -39 -15 -46 -8 -7 -12 -16 -9 -22 9 -15 34 12
34 38 0 16 4 22 14 18 15 -6 16 11 3 34 -15 22 -27 12 -27 -22z"/>
<path d="M807 2633 c-12 -11 -8 -21 13 -26 17 -4 18 -2 9 14 -11 21 -13 22
-22 12z"/>
<path d="M787 2560 c-16 -16 -16 -18 -2 -24 9 -3 18 0 21 9 10 25 0 33 -19 15z"/>
<path d="M2749 2508 c0 -1 -2 -20 -3 -41 -3 -42 -1 -40 -41 -53 -25 -8 -30
-15 -33 -47 -4 -49 13 -71 50 -63 15 3 30 1 33 -4 4 -7 14 -6 26 1 15 7 24 7
35 -1 33 -28 95 23 94 77 -1 13 -6 9 -16 -12 -29 -55 -64 -71 -64 -30 0 15 6
25 14 25 34 0 43 61 10 74 -20 8 -54 -29 -54 -57 0 -13 -7 -32 -15 -43 -14
-17 -15 -11 -13 75 2 69 0 95 -9 98 -7 3 -13 3 -14 1z m101 -113 c0 -8 -4 -15
-10 -15 -5 0 -7 7 -4 15 4 8 8 15 10 15 2 0 4 -7 4 -15z m-119 -5 c1 -5 2 -16
3 -22 3 -18 -13 -48 -24 -48 -11 0 -13 40 -4 64 7 18 23 22 25 6z"/>
<path d="M3405 2478 c-46 -26 -59 -80 -32 -130 44 -81 141 -70 166 19 22 76
-67 149 -134 111z m101 -43 c21 -32 10 -83 -19 -95 -31 -12 -68 29 -61 67 10
57 52 71 80 28z"/>
<path d="M4035 2420 c-12 -19 -14 -85 -3 -91 14 -9 49 1 43 11 -3 5 -1 11 5
15 5 3 10 11 10 18 0 6 -6 2 -14 -8 -13 -18 -13 -18 -24 1 -6 11 -7 25 -1 36
10 18 -5 36 -16 18z m15 -76 c0 -8 -4 -12 -10 -9 -5 3 -10 10 -10 16 0 5 5 9
10 9 6 0 10 -7 10 -16z"/>
<path d="M2803 2273 c9 -2 23 -2 30 0 6 3 -1 5 -18 5 -16 0 -22 -2 -12 -5z"/>
<path d="M2863 2273 c9 -2 23 -2 30 0 6 3 -1 5 -18 5 -16 0 -22 -2 -12 -5z"/>
<path d="M2918 2273 c7 -3 16 -2 19 1 4 3 -2 6 -13 5 -11 0 -14 -3 -6 -6z"/>
<path d="M1420 1737 c0 -22 -6 -37 -15 -41 -19 -7 -20 -26 -1 -26 16 0 26 21
26 56 0 16 4 23 11 18 7 -4 10 -1 7 6 -10 30 -28 21 -28 -13z"/>
</g>
</svg>
