<svg xmlns="http://www.w3.org/2000/svg" xmlns:xlink="http://www.w3.org/1999/xlink" width="41.956" height="44.263" viewBox="0 0 41.956 44.263">
  <defs>
    <radialGradient id="radial-gradient" cx="0.5" cy="0.5" r="0.5" gradientUnits="objectBoundingBox">
      <stop offset="0" stop-color="#f44336"/>
      <stop offset="1" stop-color="#b71c1c"/>
    </radialGradient>
  </defs>
  <path id="Union_1" data-name="Union 1" d="M20.978,44.258a6.2,6.2,0,0,1-3.63-1.229,40.715,40.715,0,0,1-8.786-8.7C5.311,30.1,4.55,27.889,2.337,23.108A24.845,24.845,0,0,1,.054,13.853c-.069-.552-.208.123.623-4.291S8.078,2.7,8.078,2.7A28.88,28.88,0,0,1,15.965.429L20.942.006V0l.036,0,.036,0V.006l4.977.423A28.88,28.88,0,0,1,33.878,2.7s6.572,2.452,7.4,6.865.692,3.739.623,4.291a24.845,24.845,0,0,1-2.283,9.256c-2.214,4.781-2.975,6.988-6.226,11.217a40.715,40.715,0,0,1-8.786,8.7,6.531,6.531,0,0,1-3.479,1.234C21.06,44.263,21.009,44.261,20.978,44.258Z" transform="translate(0)" fill="url(#radial-gradient)"/>
</svg>
