<?xml version="1.0" standalone="no"?>
<!DOCTYPE svg PUBLIC "-//W3C//DTD SVG 20010904//EN"
 "http://www.w3.org/TR/2001/REC-SVG-20010904/DTD/svg10.dtd">
<svg version="1.0" xmlns="http://www.w3.org/2000/svg"
 width="960.000000pt" height="960.000000pt" viewBox="0 0 960.000000 960.000000"
 preserveAspectRatio="xMidYMid meet">
<metadata>
Created by potrace 1.11, written by Peter Selinger 2001-2013
</metadata>
<g transform="translate(0.000000,960.000000) scale(0.100000,-0.100000)"
fill="#000000" stroke="none">
<path d="M2730 6314 c-207 -40 -361 -168 -406 -338 -17 -63 -17 -272 0 -376
l12 -75 37 -6 c39 -6 66 -31 67 -61 0 -24 -35 -58 -61 -58 -16 0 -20 -5 -17
-27 3 -26 7 -28 45 -28 78 0 118 -70 73 -127 l-19 -25 24 -23 c34 -32 33 -72
-2 -100 -15 -11 -33 -18 -41 -15 -11 4 -12 -3 -7 -35 6 -35 4 -43 -17 -60 -19
-15 -21 -22 -12 -37 6 -10 20 -19 32 -21 12 -2 23 -13 26 -28 5 -17 13 -24 32
-24 44 0 93 -36 94 -69 0 -8 -10 -3 -27 13 -36 37 -66 42 -105 19 -39 -23 -56
-62 -42 -100 12 -35 91 -78 158 -85 30 -4 56 -14 69 -27 29 -29 19 -33 -36
-13 -41 15 -50 15 -79 2 -18 -7 -64 -14 -102 -14 l-69 -1 -22 90 c-28 112 -60
177 -126 252 -115 130 -128 173 -84 282 27 66 24 94 -14 106 -44 14 -160 -35
-271 -113 -260 -185 -496 -496 -437 -576 13 -18 16 -17 87 18 41 20 84 36 97
36 33 0 83 -27 113 -61 25 -29 27 -29 145 -32 66 -1 -158 -4 -497 -5 -551 -2
-618 -4 -618 -17 0 -9 -7 -29 -15 -45 -13 -24 -22 -30 -50 -30 -40 0 -60 27
-51 66 6 23 5 24 -56 24 l-61 0 24 -27 c13 -16 41 -47 62 -69 42 -45 42 -41
-15 -85 -37 -27 -35 -55 4 -79 44 -27 94 -26 108 1 9 16 7 27 -9 55 -35 59
-20 64 94 32 60 -17 64 -36 13 -60 -46 -22 -62 -63 -32 -85 25 -18 93 -36 111
-29 15 6 14 42 -2 109 -6 20 -4 27 8 27 28 0 147 -41 147 -51 0 -5 -16 -17
-35 -26 -46 -22 -57 -59 -26 -84 25 -21 83 -34 106 -25 17 6 21 61 5 71 -12 8
-13 55 -1 55 20 0 141 -41 146 -50 3 -6 -10 -19 -29 -31 -36 -21 -54 -57 -41
-80 4 -6 28 -20 52 -31 42 -19 46 -19 64 -2 24 22 24 35 -1 81 -12 22 -16 41
-11 46 11 11 171 -40 171 -55 0 -5 -18 -17 -40 -25 -46 -18 -59 -46 -35 -73
22 -25 79 -43 105 -35 24 8 27 50 5 79 -16 21 -20 56 -7 56 20 -1 174 -57 175
-65 1 -5 -16 -18 -38 -29 -49 -26 -57 -57 -22 -81 36 -23 97 -31 108 -14 13
22 11 55 -6 69 -8 7 -15 21 -15 32 0 23 4 22 100 -7 30 -10 72 -20 93 -22 30
-4 37 -9 37 -28 0 -12 6 -28 14 -34 8 -7 17 -23 20 -37 6 -22 9 -24 22 -13 11
9 18 9 26 1 15 -15 2 -43 -17 -36 -13 5 -15 1 -9 -22 4 -16 11 -37 16 -46 5
-11 5 -26 -2 -38 -8 -15 -6 -24 10 -40 11 -11 24 -20 28 -20 4 0 27 -29 50
-64 58 -88 148 -169 219 -197 171 -67 439 -11 567 118 88 90 122 193 110 339
-5 56 -3 83 5 88 17 11 13 34 -9 53 -25 22 -25 35 -1 57 18 16 105 17 1331 15
l1312 -1 37 -32 c48 -41 57 -53 85 -106 65 -123 28 -258 -89 -329 -67 -41
-228 -81 -325 -81 -178 -1 -270 -62 -270 -179 0 -23 6 -56 14 -74 36 -83 180
-173 322 -201 93 -18 284 -21 383 -5 304 48 506 105 733 208 112 50 183 63
311 58 61 -2 144 -12 184 -21 81 -19 424 -148 678 -256 22 -10 119 -41 215
-71 l175 -54 180 0 c168 0 186 2 273 29 135 40 210 77 293 144 199 158 334
423 359 706 6 66 17 164 25 216 18 123 30 354 21 413 l-7 47 -507 3 c-279 2
-511 5 -517 5 -5 1 -71 -1 -146 -4 -154 -7 -190 2 -263 67 -33 29 -86 99 -86
114 0 3 16 5 36 5 49 0 115 18 139 38 67 56 86 139 40 182 -32 30 -100 24
-151 -15 -19 -15 -37 -25 -38 -24 -2 2 18 51 44 109 104 232 101 330 -9 300
-104 -28 -177 -189 -196 -435 -3 -44 -8 -100 -10 -124 -4 -49 -24 -75 -77
-102 -101 -52 -168 7 -168 148 0 79 20 116 63 116 53 0 79 -49 30 -55 -24 -2
-28 -8 -28 -33 0 -54 77 -69 96 -18 23 61 0 108 -64 132 -97 37 -212 -36 -233
-148 -8 -42 9 -113 36 -152 27 -37 96 -69 152 -69 47 0 130 29 160 57 23 21
34 11 42 -39 4 -24 9 -58 12 -75 l6 -33 -451 0 -450 0 -37 32 c-47 42 -111
128 -136 185 -11 24 -18 46 -16 48 1 1 32 16 68 32 112 51 199 146 214 233 16
92 -65 216 -183 279 -94 50 -168 59 -543 67 l-338 7 0 -25 c0 -27 56 -90 105
-116 19 -10 66 -18 125 -22 l95 -5 3 -157 c1 -87 1 -158 -1 -158 -3 0 -25 12
-51 26 -25 14 -50 23 -56 19 -23 -14 -7 -38 50 -73 l60 -37 -1 -163 c-1 -111
-5 -165 -13 -168 -6 -2 -719 -5 -1584 -6 l-1572 -3 0 23 0 22 1303 2 c716 2
1177 4 1024 5 -153 2 -277 7 -275 11 26 54 43 82 50 82 5 0 22 -10 38 -21 39
-29 73 -19 110 33 39 54 86 198 68 209 -19 12 -36 -9 -52 -61 -18 -59 -53
-130 -66 -130 -19 0 -23 55 -12 150 11 93 11 95 -10 113 -15 12 -31 17 -49 13
-19 -3 -32 1 -44 14 -24 27 -97 27 -134 1 -16 -12 -41 -50 -60 -93 -69 -153
-93 -198 -107 -198 -16 0 -17 20 -14 178 2 123 10 156 36 160 49 7 64 13 64
27 0 17 -30 35 -59 35 -17 0 -21 6 -21 33 0 27 -6 36 -26 46 -37 17 -74 -8
-74 -49 0 -26 -4 -30 -27 -30 -37 0 -56 -13 -51 -36 2 -13 13 -20 37 -22 l34
-3 -6 -77 c-5 -80 -54 -228 -82 -252 -12 -10 -17 -7 -26 13 -9 19 -9 49 0 123
10 88 10 99 -6 116 -13 14 -25 18 -49 14 -23 -5 -35 -1 -49 14 -13 14 -31 20
-63 20 -36 0 -50 -6 -76 -32 -18 -18 -43 -59 -55 -92 -23 -61 -76 -146 -91
-146 -13 0 -20 55 -18 130 3 63 2 65 -23 68 -35 4 -77 -32 -100 -86 -11 -25
-22 -43 -24 -40 -3 2 0 31 5 64 6 32 10 74 10 92 0 31 -2 32 -40 32 -47 0 -56
-13 -69 -102 -22 -151 -176 -305 -212 -211 -5 15 -9 52 -7 82 3 54 4 56 33 59
44 4 99 30 114 54 21 34 4 97 -39 140 -43 44 -74 48 -114 17 -34 -26 -49 -56
-92 -182 -82 -234 -112 -231 -93 8 l4 50 -40 1 c-37 0 -40 2 -43 31 -4 38 -27
49 -58 28 -20 -13 -23 -23 -22 -68 1 -45 -5 -65 -35 -118 -48 -86 -96 -132
-133 -127 -36 4 -54 37 -54 98 0 51 13 70 47 70 37 0 90 26 103 50 18 34 4
104 -29 139 -75 80 -152 35 -196 -116 -19 -65 -19 -180 0 -226 15 -36 52 -71
86 -82 35 -11 113 23 156 68 45 46 66 84 93 161 16 49 37 62 33 21 -2 -11 -6
-44 -9 -72 -9 -70 16 -140 53 -149 33 -9 86 17 114 56 l23 30 25 -47 c21 -38
35 -51 66 -62 38 -13 44 -12 98 14 39 18 68 41 90 71 18 24 35 43 40 44 4 0 7
-15 7 -33 0 -89 84 -73 101 19 18 96 49 140 49 68 0 -106 79 -147 144 -75 24
27 36 27 36 1 0 -23 34 -95 50 -105 5 -3 10 -10 10 -16 0 -11 -1315 -11 -1344
0 -13 5 -25 28 -37 67 -9 32 -26 82 -37 109 -44 111 -122 326 -122 336 0 7 11
22 25 35 16 15 25 34 25 53 0 16 5 33 10 36 20 12 10 53 -17 73 -25 18 -28 26
-26 74 1 39 -3 58 -17 73 -10 11 -21 32 -25 47 -9 35 -44 66 -80 70 -27 3 -31
7 -38 53 -5 28 -9 118 -10 200 -2 179 8 212 97 301 110 109 293 162 448 129
49 -11 88 -33 130 -72 34 -33 39 -35 83 -29 86 13 161 58 200 119 24 37 17 41
-30 17 -56 -29 -122 -25 -234 11 -86 29 -111 32 -236 35 -77 1 -151 0 -165 -2z
m-202 -806 c21 -27 24 -59 7 -78 -23 -25 -12 -68 19 -80 25 -9 41 -49 26 -64
-20 -20 -11 -64 18 -85 22 -16 25 -23 16 -38 -25 -40 -39 -25 -71 74 -32 98
-73 252 -73 272 0 15 45 14 58 -1z m5218 -202 c11 -30 -20 -145 -66 -243 -27
-57 -52 -103 -56 -103 -13 0 6 195 26 260 19 62 48 99 78 100 7 0 15 -6 18
-14z m-1511 -81 c240 -17 375 -78 375 -168 0 -67 -74 -168 -152 -208 -66 -34
-123 -41 -223 -28 -64 8 -107 19 -141 38 l-49 26 4 170 c2 94 6 174 8 178 3 5
24 6 47 3 22 -3 82 -8 131 -11z m-4191 -47 c-1 -38 -26 -88 -44 -88 -6 0 -4
13 4 29 29 54 -16 66 -101 26 -161 -74 -383 -305 -383 -397 0 -37 18 -36 89 4
51 28 54 29 34 7 -31 -34 -127 -83 -147 -76 -25 10 -19 61 14 127 35 69 181
226 279 300 92 70 178 112 221 108 33 -3 35 -5 34 -40z m979 -221 c11 -34 -13
-77 -43 -77 -24 0 -23 -5 -4 59 16 56 32 62 47 18z m561 17 c18 -47 0 -94 -37
-94 -16 0 -18 5 -14 28 14 71 38 101 51 66z m684 -65 c30 -55 -4 -239 -52
-278 -14 -12 -19 -11 -35 3 -46 41 -33 221 20 277 32 34 48 34 67 -2z m599 23
c33 -21 42 -104 19 -187 -38 -144 -101 -166 -113 -39 -7 78 12 166 44 204 26
32 31 34 50 22z m2894 -18 c17 -49 -65 -138 -121 -132 -19 2 -24 8 -22 23 5
33 42 99 65 118 29 22 68 18 78 -9z m-1651 -123 c31 -11 101 -22 160 -26 l105
-7 55 -111 c30 -62 56 -115 58 -120 2 -4 -97 -6 -220 -5 l-223 3 -3 143 c-2
78 1 142 5 142 5 0 33 -9 63 -19z m-1620 -102 c0 -28 26 -75 45 -83 36 -13 60
-4 102 39 23 25 45 45 47 45 2 0 6 -10 10 -23 3 -13 17 -40 30 -60 l25 -37
-254 0 c-140 0 -255 3 -255 6 0 3 12 22 27 42 15 20 28 39 30 41 2 2 11 -3 20
-11 46 -41 96 -29 134 32 25 40 39 43 39 9z m3200 -111 c0 -5 -6 -8 -12 -8
-10 0 -12 -41 -10 -179 3 -158 5 -180 20 -186 9 -4 76 -9 148 -11 176 -5 174
-6 174 154 0 119 6 142 38 142 12 0 14 -22 8 -137 -4 -76 -9 -145 -12 -155
-10 -33 -69 -50 -167 -46 l-91 3 -16 -60 c-23 -85 -51 -134 -105 -184 -77 -71
-142 -95 -265 -99 -60 -2 -129 1 -160 8 -103 23 -327 103 -420 150 -173 88
-470 99 -730 28 -238 -65 -353 -26 -294 100 35 76 17 72 311 72 l263 0 0 -31
c0 -20 4 -29 13 -26 6 2 12 15 12 28 l0 24 628 3 627 2 -16 25 -16 25 -312 0
c-173 0 -304 4 -296 9 34 19 183 31 385 31 208 0 215 1 215 20 0 19 -7 20
-177 20 -159 1 -176 2 -159 15 16 12 55 15 183 15 156 0 163 1 163 20 0 19 -7
20 -115 20 -65 0 -115 4 -115 9 0 27 47 41 137 41 76 0 93 3 93 15 0 12 -14
15 -67 15 -54 0 -71 4 -89 21 l-23 22 -50 -22 c-47 -20 -65 -21 -363 -21 -269
0 -317 2 -336 16 -30 21 -19 34 26 32 166 -6 912 4 912 12 0 6 -13 10 -30 10
-16 0 -30 2 -30 4 0 2 9 23 19 47 11 24 23 68 27 98 l7 54 33 -69 c19 -38 34
-72 34 -76z m-5230 -49 c-10 -19 -29 -19 -785 -19 l-775 0 0 -24 c0 -50 -60
-74 -95 -39 -12 11 -15 25 -11 48 6 29 4 34 -21 41 -17 5 324 11 827 14 470 3
858 4 863 2 4 -2 2 -12 -3 -23z m224 15 c9 -22 8 -24 -9 -24 -8 0 -15 9 -15
20 0 24 15 27 24 4z m3294 -76 c2 -12 -6 -18 -30 -22 -25 -4 -2293 -20 -3008
-21 -96 0 -115 3 -115 15 0 22 134 27 875 30 355 2 839 6 1075 9 237 3 603 6
815 6 353 0 385 -1 388 -17z m550 10 c7 -7 12 -16 12 -20 0 -4 -112 -8 -250
-8 -202 0 -250 3 -250 13 0 8 3 17 7 20 12 13 468 8 481 -5z m-5423 -18 c4 -7
233 -8 676 -3 693 7 688 7 689 -29 0 -5 -188 -8 -417 -8 -465 0 -807 -9 -778
-21 11 -4 300 -8 642 -8 342 -1 628 -4 637 -7 9 -3 16 -12 16 -20 0 -12 -86
-14 -546 -14 l-547 0 26 -20 c24 -19 40 -20 549 -20 341 0 518 -4 508 -10 -9
-6 -186 -10 -447 -10 -238 0 -433 -2 -433 -5 0 -3 8 -14 17 -25 17 -19 29 -20
410 -20 354 0 428 -5 379 -23 -8 -3 -187 -6 -397 -7 -323 0 -385 -3 -399 -15
-22 -19 -55 -19 -74 1 -18 17 -21 60 -6 69 22 14 7 25 -34 25 -36 0 -47 -5
-60 -25 -22 -34 -69 -34 -91 -1 -18 27 -9 57 23 75 13 8 -2 10 -57 11 -66 0
-75 -2 -93 -25 -23 -30 -58 -32 -83 -5 -22 25 -13 67 18 80 16 6 5 9 -44 9
-54 1 -69 -3 -84 -19 -22 -24 -58 -26 -79 -4 -19 18 -21 55 -4 72 15 15 74 16
83 2z m6105 -49 c0 -24 -244 -35 -345 -17 -48 9 -49 10 -20 17 46 10 365 10
365 0z m-1230 -5 c0 -2 2 -11 5 -19 5 -12 -28 -15 -207 -20 -274 -9 -2924 -10
-2938 -2 -5 3 -10 13 -10 21 0 12 135 14 973 17 534 1 1243 3 1575 5 331 1
602 0 602 -2z m618 -8 c7 -7 12 -16 12 -20 0 -4 -128 -8 -285 -8 -231 0 -285
3 -285 13 0 8 3 17 7 20 3 4 126 7 273 7 193 0 269 -3 278 -12z m98 -80 c4 -5
5 -10 3 -12 -2 -3 -857 -8 -1900 -12 -1430 -5 -1898 -4 -1903 4 -5 9 87 12
366 13 205 1 816 5 1358 8 1276 9 2066 8 2076 -1z m-3996 -19 c0 -11 -16 -11
-50 -2 l-25 7 25 6 c28 7 50 2 50 -11z m4140 -50 c41 -7 82 -16 90 -20 8 -5
-748 -9 -1680 -10 -932 0 -1838 -2 -2014 -4 -306 -3 -383 2 -360 25 6 6 682
11 1824 12 998 2 1871 4 1940 5 69 2 159 -2 200 -8z m-4110 -26 c0 -22 -2 -25
-10 -13 -13 20 -13 40 0 40 6 0 10 -12 10 -27z m-220 -88 c13 -25 65 -55 95
-55 27 0 15 -43 -13 -45 -32 -2 -47 -21 -48 -58 -2 -79 -4 -87 -20 -87 -66 0
-133 119 -134 238 l0 32 53 0 c47 0 55 -3 67 -25z m-177 4 c27 -12 47 -47 47
-80 0 -27 -53 -79 -80 -79 -27 0 -80 52 -80 79 0 31 20 68 44 79 28 14 40 14
69 1z m347 -274 c14 -17 5 -35 -18 -35 -27 0 -45 17 -39 34 8 20 41 21 57 1z
m-566 -138 c21 -16 15 -51 -11 -61 -33 -13 -57 36 -31 62 15 15 20 15 42 -1z"/>
<path d="M6755 4080 c-8 -13 4 -32 16 -25 12 8 12 35 0 35 -6 0 -13 -4 -16
-10z"/>
<path d="M7675 4080 c-3 -6 1 -13 10 -16 19 -8 30 0 20 15 -8 14 -22 14 -30 1z"/>
<path d="M5876 4053 c-12 -12 -5 -23 14 -23 11 0 20 4 20 9 0 11 -26 22 -34
14z"/>
<path d="M7266 3901 c-3 -5 1 -14 8 -20 16 -13 32 2 21 19 -8 12 -22 13 -29 1z"/>
<path d="M2707 5894 c7 -3 10 -11 7 -19 -3 -7 -1 -16 5 -20 7 -4 11 4 11 19 0
18 -5 26 -17 25 -10 0 -13 -3 -6 -5z"/>
<path d="M2650 5870 c0 -11 2 -20 4 -20 2 0 6 9 9 20 3 11 1 20 -4 20 -5 0 -9
-9 -9 -20z"/>
<path d="M2710 5802 c0 -15 -6 -22 -20 -22 -11 0 -23 -7 -27 -15 -8 -21 1 -28
26 -20 19 6 39 60 27 72 -3 4 -6 -3 -6 -15z"/>
<path d="M2603 5759 c-13 -5 -23 -13 -23 -19 0 -16 40 -12 47 5 8 21 2 24 -24
14z"/>
<path d="M2190 5573 c1 -11 50 -46 50 -35 0 10 -33 42 -43 42 -4 0 -7 -3 -7
-7z"/>
<path d="M2191 5539 c0 -8 14 -25 31 -38 26 -21 29 -22 20 -5 -16 30 -52 60
-51 43z"/>
<path d="M2352 5491 c-8 -4 -12 -19 -10 -32 4 -34 53 -40 63 -8 5 16 2 26 -11
36 -21 15 -24 16 -42 4z"/>
<path d="M2158 5422 c-29 -13 -39 -52 -15 -52 24 0 49 26 45 46 -3 18 -5 18
-30 6z"/>
<path d="M2382 5314 c-58 -40 5 -128 64 -89 32 20 32 68 2 89 -12 9 -27 16
-33 16 -6 0 -21 -7 -33 -16z"/>
<path d="M1610 5223 c0 -75 8 -82 11 -10 3 50 13 68 23 42 3 -8 11 -15 17 -15
7 0 2 11 -11 25 -13 14 -27 25 -32 25 -4 0 -8 -30 -8 -67z"/>
<path d="M2412 5158 c-19 -19 -14 -56 9 -68 16 -9 26 -8 45 5 27 17 29 27 14
56 -12 21 -50 25 -68 7z"/>
<path d="M1594 5139 c-29 -10 -39 -28 -25 -42 8 -8 17 -6 32 10 26 26 22 44
-7 32z"/>
<path d="M5511 5031 c-10 -7 -16 -36 -19 -95 l-4 -86 -38 6 c-32 5 -42 2 -70
-23 -50 -45 -55 -142 -10 -191 26 -27 61 -28 85 -2 23 25 32 25 40 1 10 -31
43 -36 77 -11 l29 21 21 -26 c18 -24 26 -26 61 -22 24 3 50 16 68 33 43 41 87
144 61 144 -5 0 -16 -16 -25 -35 -21 -43 -85 -115 -103 -115 -16 0 -34 40 -34
76 0 17 8 28 28 35 68 28 72 31 72 66 0 34 -36 83 -60 83 -40 0 -72 -46 -90
-126 -15 -70 -30 -104 -46 -104 -11 0 -14 24 -13 118 0 64 4 144 8 177 10 73
-3 98 -38 76z m197 -208 c3 -22 -22 -48 -37 -39 -14 9 8 68 23 63 6 -2 12 -13
14 -24z m-243 -13 c20 -22 16 -81 -11 -131 -17 -33 -31 -36 -50 -11 -22 28
-12 110 19 150 13 17 21 15 42 -8z"/>
<path d="M6812 4973 c-18 -9 -45 -32 -60 -51 -24 -31 -27 -44 -27 -112 0 -71
2 -78 34 -118 58 -74 152 -103 220 -68 69 36 120 131 107 198 -9 47 -61 125
-99 148 -40 25 -128 26 -175 3z m182 -52 c68 -59 55 -203 -21 -232 -85 -32
-158 97 -110 192 34 67 82 82 131 40z"/>
<path d="M8406 4898 c-13 -18 -16 -52 -16 -159 0 -74 3 -138 6 -142 17 -16 34
8 34 49 0 43 1 44 33 44 17 0 37 4 43 8 21 13 34 51 34 94 0 59 -18 82 -58 76
-30 -4 -32 -2 -32 24 0 34 -22 37 -44 6z m92 -82 c6 -31 -8 -87 -25 -93 -30
-11 -45 56 -22 98 12 24 42 21 47 -5z"/>
<path d="M8742 4908 c-12 -15 -21 -303 -10 -314 16 -15 38 20 38 60 0 40 0 41
36 41 31 0 39 5 56 35 13 24 18 47 14 73 -6 52 -23 70 -63 65 -30 -4 -33 -2
-33 24 0 30 -20 38 -38 16z m88 -87 c13 -26 -9 -95 -32 -99 -15 -3 -18 4 -18
41 0 25 3 52 6 61 8 22 31 20 44 -3z"/>
<path d="M8596 4839 c-37 -43 -37 -109 0 -138 36 -28 50 -26 85 8 47 47 38
119 -18 149 -32 17 -38 15 -67 -19z m64 -25 c15 -37 2 -96 -19 -92 -23 5 -30
118 -6 118 8 0 20 -12 25 -26z"/>
<path d="M8058 4843 c-8 -42 6 -82 42 -122 36 -40 60 -52 60 -31 0 6 -11 15
-24 21 -35 16 -59 70 -57 127 1 26 -16 30 -21 5z"/>
<path d="M8051 4713 c-1 -17 4 -35 10 -38 16 -10 16 -3 3 35 l-13 35 0 -32z"/>
<path d="M5513 4563 c15 -2 39 -2 55 0 15 2 2 4 -28 4 -30 0 -43 -2 -27 -4z"/>
<path d="M2847 3553 c-4 -3 -7 -33 -7 -66 0 -66 10 -74 12 -11 1 49 6 58 24
43 25 -20 25 -4 1 19 -13 12 -27 19 -30 15z"/>
<path d="M2813 3400 c-27 -11 -31 -40 -5 -40 21 0 42 18 42 37 0 15 -6 15 -37
3z"/>
</g>
</svg>
